<svg height="1123" width="800">
<g fill="none" stroke="black" stroke-width="2">
<path d = "M154 41 L381 41" />
<path d = "M400 3 L627 3" />
<path d = "M381 22 L381 41" />
<path d = "M646 22 L646 41" />
<path d = "M476 41 L551 41" />
<path d = "M646 41 L740 41" />
<path d = "M721 79 L778 79" />
<path d = "M721 192 L778 192" />
<path d = "M759 117 L759 154" />
<path d = "M154 192 L343 192" />
<path d = "M343 192 L343 230" />
<path d = "M154 230 L343 230" />
<path d = "M684 268 L740 268" />
<path d = "M684 306 L740 306" />
<path d = "M476 306 L476 362" />
<path d = "M551 306 L551 362" />
<path d = "M381 343 L476 343" />
<path d = "M551 343 L646 343" />
<path d = "M154 381 L343 381" />
<path d = "M287 495 L325 495" />
<path d = "M268 517 L268 646" />
<path d = "M287 532 L325 532" />
<path d = "M343 495 L457 495" />
<path d = "M343 532 L457 532" />
<path d = "M343 684 L721 684" />
<path d = "M343 721 L362 721" />
<path d = "M154 22 L154 763" />
<path d = "M3 22 L154 22" />
<path d = "M3 869 L154 869" />
<path d = "M154 869 L154 1024" />
<path d = "M287 740 L287 797" />
<path d = "M325 740 L325 797" />
<path d = "M343 646 L343 684" />
<path d = "M343 684 L721 684" />
<path d = "M721 230 L721 268" />
<path d = "M721 306 L721 684" />
<path d = "M154 1024 L287 1024" />
<path d = "M343 721 L343 797" />
<path d = "M343 835 L343 1024" />
<path d = "M287 1024 L287 1043" />
<path d = "M325 1024 L325 1043" />
<path d = "M325 1024 L343 1024" />
<path d = "M797 98 L797 173" />
<path d = "M721 230 L740 230" />
<path d = "M495 381 L532 381" />
<path d = "M343 797 L362 797" />
<path d = "M343 835 L362 835" />
<path d = "M3 22 L3 869" />
<path d = "M3 22 L154 22" />
<path d = "M343 570 L343 608" />
<path d = "M400 3 A18.9 18.9 0 0 0 381 22" />
<path d = "M646 22 A18.9 18.9 0 0 0 627 3" />
<path d = "M740 79 A18.9 18.9 0 0 0 740 41" />
<path d = "M740 230 A18.9 18.9 0 0 0 740 192" />
<path d = "M797 98 A18.9 18.9 0 0 0 778 79" />
<path d = "M778 192 A18.9 18.9 0 0 0 797 173" />
<path d = "M740 306 A18.9 18.9 0 0 0 740 268" />
<path d = "M476 362 A18.9 18.9 0 0 0 495 381" />
<path d = "M532 381 A18.9 18.9 0 0 0 551 362" />
<path d = "M362 721 A18.9 18.9 0 0 0 362 684" />
<path d = "M325 740 A18.9 18.9 0 0 0 287 740" />
<path d = "M362 835 A18.9 18.9 0 0 0 362 797" />
<path d = "M287 1043 A18.9 18.9 0 0 0 325 1043" />
<path d = "M457 495 A113.4 113.4 0 0 0 343 381" />
<path d = "M343 646 A113.4 113.4 0 0 0 457 532" />
</g>
<g fill="none" stroke="black" stroke-width="1" stroke-dasharray="5,5">
<path d = "M381 41 L476 41" />
<path d = "M551 41 L646 41" />
<path d = "M721 41 L721 230" />
<path d = "M759 79 L759 192" />
<path d = "M343 192 L721 192" />
<path d = "M343 230 L721 230" />
<path d = "M721 268 L721 306" />
<path d = "M154 343 L381 343" />
<path d = "M646 343 L721 343" />
<path d = "M343 381 L721 381" />
<path d = "M457 495 L721 495" />
<path d = "M457 532 L721 532" />
<path d = "M343 646 L721 646" />
<path d = "M154 759 L343 759" />
<path d = "M154 873 L343 873" />
<path d = "M154 910 L343 910" />
<path d = "M721 268 L721 306" />
<path d = "M343 495 L343 532" />
<path d = "M154 517 L268 517" />
<path d = "M154 646 L268 646" />
<path d = "M476 343 L551 343" />
<path d = "M3 128 L154 128" />
<path d = "M3 340 L154 340" />
<path d = "M3 551 L154 551" />
<path d = "M3 763 L154 763" />
</g>
<g fill="none" stroke="black" stroke-width="1" stroke-dasharray="10, 5, 3, 5">
<path d = "M154 631 L268 631" />
<path d = "M3 234 L154 234" />
<path d = "M3 446 L154 446" />
<path d = "M3 657 L154 657" />
<path d = "M154 763 L154 869" />
</g>
  Sorry, your browser does not support inline SVG.
</svg>

